<?xml version="1.0" standalone="no"?>
<!DOCTYPE svg PUBLIC "-//W3C//DTD SVG 20010904//EN"
 "http://www.w3.org/TR/2001/REC-SVG-20010904/DTD/svg10.dtd">
<svg version="1.0" xmlns="http://www.w3.org/2000/svg"
 width="180.000000pt" height="180.000000pt" viewBox="0 0 180.000000 180.000000"
 preserveAspectRatio="xMidYMid meet">
<metadata>
Created by potrace 1.14, written by Peter Selinger 2001-2017
</metadata>
<g transform="translate(0.000000,180.000000) scale(0.100000,-0.100000)"
fill="#000000" stroke="none">
<path d="M177 1539 c-40 -24 -40 -107 1 -125 9 -4 338 -8 729 -10 655 -2 714
-1 733 14 40 33 31 99 -15 120 -33 15 -1423 16 -1448 1z"/>
<path d="M850 1236 c0 -21 -5 -24 -27 -23 -25 2 -29 -3 -45 -48 -21 -64 -21
-65 0 -65 28 0 33 -10 17 -33 -14 -19 -12 -23 32 -54 l47 -33 21 20 22 21 15
-22 15 -23 51 34 c29 18 52 35 52 37 0 3 -7 11 -15 20 -17 17 -11 33 12 33 17
0 15 39 -6 92 -9 24 -14 27 -42 21 -30 -6 -32 -5 -27 20 5 27 5 27 -58 27 -61
0 -64 -1 -64 -24z"/>
<path d="M1226 988 c1 -145 2 -265 3 -268 2 -7 189 -11 228 -4 43 6 106 70
121 121 17 56 15 136 -3 181 -32 75 -87 112 -168 113 l-53 1 1 59 1 59 -66 0
-65 0 1 -262z m220 -3 c19 -29 15 -114 -6 -140 -19 -23 -57 -18 -76 10 -19 29
-15 114 6 140 19 23 57 18 76 -10z"/>
<path d="M376 1128 c-79 -17 -111 -48 -135 -135 -9 -31 -8 -33 14 -33 34 0 37
-12 9 -39 -22 -21 -27 -39 -27 -93 1 -87 110 -141 222 -108 19 5 39 6 45 1 8
-6 120 -8 134 -2 1 0 -6 18 -17 40 -17 32 -20 61 -22 165 -1 109 -4 129 -21
151 -39 50 -117 70 -202 53z m89 -128 c3 -5 -3 -10 -13 -10 -11 0 -35 -3 -53
-7 -31 -6 -33 -5 -20 10 15 19 76 23 86 7z m-10 -150 c-11 -12 -31 -20 -52
-20 -63 0 -30 33 39 38 31 3 31 2 13 -18z"/>
<path d="M188 498 c-49 -17 -59 -87 -17 -120 23 -19 -40 -18 1132 -20 303 -1
319 0 338 19 30 30 33 67 6 98 l-23 27 -706 2 c-388 1 -717 -2 -730 -6z"/>
</g>
</svg>
